<?xml version="1.0" encoding="UTF-8"?>
<svg xmlns="http://www.w3.org/2000/svg" xmlns:xlink="http://www.w3.org/1999/xlink" width="145px" height="145px" viewBox="0 0 145 145" version="1.1" preserveAspectRatio="none" >
<title>https://go.umd.edu/s</title>
<g id="canvas" >
<rect x="0" y="0" width="145px" height="145px" fill="#fff" />
<g id="barcode" fill="#000000">
<rect x="10" y="10" width="35px" height="5px" />
<rect x="50" y="10" width="5px" height="5px" />
<rect x="60" y="10" width="20px" height="5px" />
<rect x="100" y="10" width="35px" height="5px" />
<rect x="10" y="15" width="5px" height="5px" />
<rect x="40" y="15" width="5px" height="5px" />
<rect x="55" y="15" width="10px" height="5px" />
<rect x="75" y="15" width="5px" height="5px" />
<rect x="100" y="15" width="5px" height="5px" />
<rect x="130" y="15" width="5px" height="5px" />
<rect x="10" y="20" width="5px" height="5px" />
<rect x="20" y="20" width="15px" height="5px" />
<rect x="40" y="20" width="5px" height="5px" />
<rect x="60" y="20" width="5px" height="5px" />
<rect x="75" y="20" width="15px" height="5px" />
<rect x="100" y="20" width="5px" height="5px" />
<rect x="110" y="20" width="15px" height="5px" />
<rect x="130" y="20" width="5px" height="5px" />
<rect x="10" y="25" width="5px" height="5px" />
<rect x="20" y="25" width="15px" height="5px" />
<rect x="40" y="25" width="5px" height="5px" />
<rect x="65" y="25" width="20px" height="5px" />
<rect x="90" y="25" width="5px" height="5px" />
<rect x="100" y="25" width="5px" height="5px" />
<rect x="110" y="25" width="15px" height="5px" />
<rect x="130" y="25" width="5px" height="5px" />
<rect x="10" y="30" width="5px" height="5px" />
<rect x="20" y="30" width="15px" height="5px" />
<rect x="40" y="30" width="5px" height="5px" />
<rect x="55" y="30" width="5px" height="5px" />
<rect x="75" y="30" width="10px" height="5px" />
<rect x="90" y="30" width="5px" height="5px" />
<rect x="100" y="30" width="5px" height="5px" />
<rect x="110" y="30" width="15px" height="5px" />
<rect x="130" y="30" width="5px" height="5px" />
<rect x="10" y="35" width="5px" height="5px" />
<rect x="40" y="35" width="5px" height="5px" />
<rect x="60" y="35" width="10px" height="5px" />
<rect x="75" y="35" width="10px" height="5px" />
<rect x="100" y="35" width="5px" height="5px" />
<rect x="130" y="35" width="5px" height="5px" />
<rect x="10" y="40" width="35px" height="5px" />
<rect x="50" y="40" width="5px" height="5px" />
<rect x="60" y="40" width="5px" height="5px" />
<rect x="70" y="40" width="5px" height="5px" />
<rect x="80" y="40" width="5px" height="5px" />
<rect x="90" y="40" width="5px" height="5px" />
<rect x="100" y="40" width="35px" height="5px" />
<rect x="50" y="45" width="5px" height="5px" />
<rect x="60" y="45" width="5px" height="5px" />
<rect x="75" y="45" width="5px" height="5px" />
<rect x="90" y="45" width="5px" height="5px" />
<rect x="10" y="50" width="10px" height="5px" />
<rect x="25" y="50" width="10px" height="5px" />
<rect x="40" y="50" width="5px" height="5px" />
<rect x="55" y="50" width="10px" height="5px" />
<rect x="70" y="50" width="5px" height="5px" />
<rect x="80" y="50" width="15px" height="5px" />
<rect x="100" y="50" width="5px" height="5px" />
<rect x="130" y="50" width="5px" height="5px" />
<rect x="10" y="55" width="10px" height="5px" />
<rect x="35" y="55" width="5px" height="5px" />
<rect x="45" y="55" width="5px" height="5px" />
<rect x="55" y="55" width="5px" height="5px" />
<rect x="65" y="55" width="5px" height="5px" />
<rect x="85" y="55" width="5px" height="5px" />
<rect x="105" y="55" width="25px" height="5px" />
<rect x="20" y="60" width="30px" height="5px" />
<rect x="60" y="60" width="30px" height="5px" />
<rect x="105" y="60" width="5px" height="5px" />
<rect x="115" y="60" width="5px" height="5px" />
<rect x="130" y="60" width="5px" height="5px" />
<rect x="10" y="65" width="10px" height="5px" />
<rect x="25" y="65" width="5px" height="5px" />
<rect x="45" y="65" width="25px" height="5px" />
<rect x="80" y="65" width="10px" height="5px" />
<rect x="105" y="65" width="5px" height="5px" />
<rect x="115" y="65" width="20px" height="5px" />
<rect x="15" y="70" width="10px" height="5px" />
<rect x="35" y="70" width="25px" height="5px" />
<rect x="65" y="70" width="5px" height="5px" />
<rect x="90" y="70" width="20px" height="5px" />
<rect x="130" y="70" width="5px" height="5px" />
<rect x="10" y="75" width="5px" height="5px" />
<rect x="25" y="75" width="5px" height="5px" />
<rect x="35" y="75" width="5px" height="5px" />
<rect x="45" y="75" width="5px" height="5px" />
<rect x="65" y="75" width="5px" height="5px" />
<rect x="75" y="75" width="5px" height="5px" />
<rect x="85" y="75" width="5px" height="5px" />
<rect x="110" y="75" width="5px" height="5px" />
<rect x="125" y="75" width="5px" height="5px" />
<rect x="10" y="80" width="10px" height="5px" />
<rect x="25" y="80" width="5px" height="5px" />
<rect x="40" y="80" width="5px" height="5px" />
<rect x="55" y="80" width="10px" height="5px" />
<rect x="75" y="80" width="25px" height="5px" />
<rect x="110" y="80" width="25px" height="5px" />
<rect x="10" y="85" width="5px" height="5px" />
<rect x="20" y="85" width="10px" height="5px" />
<rect x="45" y="85" width="5px" height="5px" />
<rect x="55" y="85" width="5px" height="5px" />
<rect x="65" y="85" width="10px" height="5px" />
<rect x="80" y="85" width="5px" height="5px" />
<rect x="105" y="85" width="5px" height="5px" />
<rect x="115" y="85" width="10px" height="5px" />
<rect x="130" y="85" width="5px" height="5px" />
<rect x="10" y="90" width="5px" height="5px" />
<rect x="20" y="90" width="10px" height="5px" />
<rect x="35" y="90" width="15px" height="5px" />
<rect x="65" y="90" width="5px" height="5px" />
<rect x="75" y="90" width="5px" height="5px" />
<rect x="85" y="90" width="30px" height="5px" />
<rect x="120" y="90" width="10px" height="5px" />
<rect x="50" y="95" width="5px" height="5px" />
<rect x="60" y="95" width="5px" height="5px" />
<rect x="80" y="95" width="5px" height="5px" />
<rect x="90" y="95" width="5px" height="5px" />
<rect x="110" y="95" width="5px" height="5px" />
<rect x="120" y="95" width="10px" height="5px" />
<rect x="10" y="100" width="35px" height="5px" />
<rect x="60" y="100" width="10px" height="5px" />
<rect x="75" y="100" width="5px" height="5px" />
<rect x="90" y="100" width="5px" height="5px" />
<rect x="100" y="100" width="5px" height="5px" />
<rect x="110" y="100" width="5px" height="5px" />
<rect x="130" y="100" width="5px" height="5px" />
<rect x="10" y="105" width="5px" height="5px" />
<rect x="40" y="105" width="5px" height="5px" />
<rect x="55" y="105" width="5px" height="5px" />
<rect x="75" y="105" width="5px" height="5px" />
<rect x="85" y="105" width="10px" height="5px" />
<rect x="110" y="105" width="5px" height="5px" />
<rect x="125" y="105" width="10px" height="5px" />
<rect x="10" y="110" width="5px" height="5px" />
<rect x="20" y="110" width="15px" height="5px" />
<rect x="40" y="110" width="5px" height="5px" />
<rect x="50" y="110" width="25px" height="5px" />
<rect x="80" y="110" width="35px" height="5px" />
<rect x="125" y="110" width="5px" height="5px" />
<rect x="10" y="115" width="5px" height="5px" />
<rect x="20" y="115" width="15px" height="5px" />
<rect x="40" y="115" width="5px" height="5px" />
<rect x="50" y="115" width="10px" height="5px" />
<rect x="65" y="115" width="10px" height="5px" />
<rect x="80" y="115" width="25px" height="5px" />
<rect x="125" y="115" width="10px" height="5px" />
<rect x="10" y="120" width="5px" height="5px" />
<rect x="20" y="120" width="15px" height="5px" />
<rect x="40" y="120" width="5px" height="5px" />
<rect x="65" y="120" width="5px" height="5px" />
<rect x="90" y="120" width="5px" height="5px" />
<rect x="110" y="120" width="25px" height="5px" />
<rect x="10" y="125" width="5px" height="5px" />
<rect x="40" y="125" width="5px" height="5px" />
<rect x="50" y="125" width="5px" height="5px" />
<rect x="65" y="125" width="10px" height="5px" />
<rect x="100" y="125" width="15px" height="5px" />
<rect x="120" y="125" width="15px" height="5px" />
<rect x="10" y="130" width="35px" height="5px" />
<rect x="50" y="130" width="5px" height="5px" />
<rect x="90" y="130" width="5px" height="5px" />
<rect x="100" y="130" width="5px" height="5px" />
<rect x="115" y="130" width="5px" height="5px" />
<rect x="130" y="130" width="5px" height="5px" />

</g></g>
</svg>
